<?xml version="1.0" encoding="UTF-8"?>
<svg version="1.1" xmlns="http://www.w3.org/2000/svg" width="500" height="500">
<path d="M0 0 C165 0 330 0 500 0 C500 165 500 330 500 500 C335 500 170 500 0 500 C0 335 0 170 0 0 Z " fill="#131145" transform="translate(0,0)"/>
<path d="M0 0 C3.77445266 3.09295426 7.11919428 6.59932616 10.453125 10.15234375 C13.62788616 13.25808836 15.59546271 14.44162034 19.96875 14.98828125 C23.03076737 14.85747463 23.03076737 14.85747463 25.21875 12.92578125 C28.61361359 8.43971151 29.31800108 4.14464707 29.96875 -1.38671875 C31.94875 -1.38671875 33.92875 -1.38671875 35.96875 -1.38671875 C36.67174543 16.03194584 35.68901612 35.73582316 23.98828125 49.62890625 C18.15677896 55.35889302 12.05291478 57.09134781 3.96875 57.23828125 C-4.04708772 57.13004738 -9.61822042 54.75332152 -16.0625 50.16796875 C-20.63484619 46.99272834 -24.06497395 45.82182792 -29.6953125 46.125 C-33.68293093 46.95853228 -35.32696792 48.57096391 -38.03125 51.61328125 C-39.88105233 55.39049999 -40.38083716 58.74868652 -40.65625 62.92578125 C-40.73101562 63.99441406 -40.80578125 65.06304687 -40.8828125 66.1640625 C-40.95628906 67.37642578 -40.95628906 67.37642578 -41.03125 68.61328125 C-40.42240967 68.5975708 -39.81356934 68.58186035 -39.1862793 68.56567383 C-16.5454463 68.05807025 -16.5454463 68.05807025 -8.03125 71.61328125 C-6.95230469 72.04833984 -6.95230469 72.04833984 -5.8515625 72.4921875 C3.75928522 76.82613581 9.94006578 83.87989114 13.96875 93.61328125 C15.6189991 98.47076906 17.06071311 103.38692702 18.39648438 108.33959961 C21.07647358 118.45359647 21.07647358 118.45359647 27.99755859 125.80395508 C31.62683229 127.29405197 35.1313644 127.25806219 38.96875 126.61328125 C41.87285799 125.23563002 44.41668761 123.56035882 46.96875 121.61328125 C47.95875 122.93328125 48.94875 124.25328125 49.96875 125.61328125 C41.17602714 136.89677543 27.94166672 146.71487708 13.48974609 149.00634766 C1.133869 150.21448829 -8.41707021 148.51300996 -18.390625 140.78515625 C-24.3837355 135.4044804 -27.43462457 129.5167965 -28.40625 121.53125 C-28.70411111 113.53554083 -27.35103438 106.18673182 -25.45507812 98.44946289 C-23.86575954 91.80868467 -22.30136904 84.74700988 -26.03125 78.61328125 C-27.94478849 77.30871465 -27.94478849 77.30871465 -30.21875 76.42578125 C-30.95480469 76.10222656 -31.69085938 75.77867187 -32.44921875 75.4453125 C-35.61466207 74.42528311 -38.73537265 74.01168401 -42.03125 73.61328125 C-42.01030273 74.22510254 -41.98935547 74.83692383 -41.96777344 75.46728516 C-41.29334775 98.39349004 -42.18432189 122.44340987 -58.03125 140.61328125 C-71.66859507 153.43645647 -93.75574322 148.61328125 -110.03125 148.61328125 C-110.03125 99.11328125 -110.03125 49.61328125 -110.03125 -1.38671875 C-94.19125 -1.38671875 -78.35125 -1.38671875 -62.03125 -1.38671875 C-61.95103238 18.00811883 -61.95103238 18.00811883 -61.93359375 26.3046875 C-61.92165956 31.95560483 -61.90757348 37.60645707 -61.88037109 43.25732422 C-61.85856713 47.81551831 -61.84666547 52.37364253 -61.84149551 56.93188477 C-61.83781329 58.66692199 -61.83062293 60.40195558 -61.81978989 62.13696289 C-61.80517443 64.57576626 -61.80327623 67.01428456 -61.80419922 69.453125 C-61.79700867 70.16307114 -61.78981812 70.87301727 -61.78240967 71.60447693 C-61.82129398 81.16125711 -64.7054593 90.28171981 -70.76171875 97.74609375 C-76.06247252 102.97507716 -82.25186542 105.90320252 -89.00292969 108.82470703 C-95.65590227 111.71657702 -100.23015391 114.72199677 -103.30078125 121.46484375 C-104.9566177 126.33495096 -104.73424283 130.15105616 -102.46875 134.86328125 C-97.70389528 140.23901478 -92.35821952 142.23995008 -85.26953125 142.8515625 C-76.71916254 143.06846104 -69.65611593 141.57071878 -62.71875 136.36328125 C-55.96137981 129.44876292 -53.54571489 121.83298584 -51.03125 112.61328125 C-50.8146875 111.90171875 -50.598125 111.19015625 -50.375 110.45703125 C-46.41693421 96.7202147 -47.746959 80.94377972 -47.55444336 66.78491211 C-47.4019149 56.02297896 -47.05526338 45.32608039 -46.10546875 34.6015625 C-46.02704239 33.69906265 -45.94861603 32.79656281 -45.86781311 31.86671448 C-44.88528788 21.64147426 -42.5425025 12.0418107 -35.03125 4.61328125 C-25.92051084 -2.74291627 -10.75368621 -6.48522743 0 0 Z " fill="#FCFCFD" transform="translate(347.03125,156.38671875)"/>
<path d="M0 0 C7.11416988 4.11250712 11.67771354 6.06854756 20.01171875 4.49609375 C22.92219418 3.34615125 22.92219418 3.34615125 24.01171875 0.43359375 C24.72340524 -2.99544114 25.28197091 -6.40184094 25.69921875 -9.87890625 C27.67921875 -9.87890625 29.65921875 -9.87890625 31.69921875 -9.87890625 C32.15505533 6.26108512 31.54444941 20.9925562 21.38671875 34.43359375 C14.91514625 40.90516625 7.61873796 44.36162655 -1.578125 44.39453125 C-2.31160156 44.38679688 -3.04507813 44.3790625 -3.80078125 44.37109375 C-4.90099609 44.38269531 -4.90099609 44.38269531 -6.0234375 44.39453125 C-15.69280853 44.359936 -22.72262198 40.24143709 -29.80078125 33.87109375 C-30.62578125 32.96359375 -31.45078125 32.05609375 -32.30078125 31.12109375 C-32.96722656 30.40050781 -33.63367188 29.67992187 -34.3203125 28.9375 C-38.23137397 24.66664752 -41.95181741 20.332657 -45.48828125 15.74609375 C-49.23884816 11.0226075 -52.13465099 7.57339807 -58.36328125 6.68359375 C-61.68796865 7.17875996 -63.61413809 8.12530169 -66.30078125 10.12109375 C-67.88069569 13.28092264 -67.6449886 15.62165236 -67.30078125 19.12109375 C-61.2189392 31.75261185 -43.74463966 37.74986491 -31.30078125 42.12109375 C-27.30374618 43.44546724 -23.28288742 44.68938669 -19.25830078 45.92700195 C0.29559768 51.97424836 21.81258414 60.58147837 32.69921875 79.12109375 C36.90436896 87.62732915 36.87339867 97.68858929 34.515625 106.7734375 C29.76374097 120.43794612 22.37175189 129.28139778 9.69921875 136.12109375 C1.80080098 139.77162297 -4.77906064 141.3172201 -13.42578125 141.37109375 C-14.63234375 141.40203125 -14.63234375 141.40203125 -15.86328125 141.43359375 C-26.97877442 141.50461927 -35.627812 137.21338267 -45.23828125 131.99609375 C-47.26726875 130.90836285 -49.29717457 129.82234266 -51.328125 128.73828125 C-52.21234131 128.25987793 -53.09655762 127.78147461 -54.00756836 127.28857422 C-58.25148025 125.12798797 -61.56814444 124.794705 -66.30078125 125.12109375 C-69.83948065 126.7724868 -71.11148278 127.83714604 -73.30078125 131.12109375 C-73.9669146 133.39647698 -73.9669146 133.39647698 -74.42578125 135.80859375 C-74.59335938 136.61683594 -74.7609375 137.42507813 -74.93359375 138.2578125 C-75.05476563 138.87269531 -75.1759375 139.48757813 -75.30078125 140.12109375 C-76.95078125 140.12109375 -78.60078125 140.12109375 -80.30078125 140.12109375 C-80.41876729 136.35053206 -80.48861989 132.5804561 -80.55078125 128.80859375 C-80.58429688 127.75607422 -80.6178125 126.70355469 -80.65234375 125.61914062 C-80.79143541 114.31794321 -77.42633477 103.42419954 -69.4140625 95.1796875 C-59.85578264 86.45889501 -50.81470921 85.39899412 -38.33007812 85.95507812 C-24.25632407 87.10644395 -13.86807684 100.17245033 -5.30078125 110.12109375 C-4.66269531 110.88035156 -4.02460938 111.63960938 -3.3671875 112.421875 C1.85319884 118.78472128 1.85319884 118.78472128 8.69921875 123.12109375 C12.66498493 123.4327844 16.23335171 123.27591903 19.4296875 120.7578125 C20.96985507 119.03480757 20.96985507 119.03480757 21.26171875 115.93359375 C20.28154713 109.29020832 17.0046553 105.88676539 11.74609375 101.859375 C-3.7870461 91.11759733 -22.37194895 84.81113253 -40.3984375 79.65234375 C-44.96060991 78.29789334 -49.13150011 76.53624035 -53.36328125 74.37109375 C-54.05083496 74.02111328 -54.73838867 73.67113281 -55.44677734 73.31054688 C-67.28810652 67.12857375 -75.9741437 59.03444274 -80.30078125 46.12109375 C-83.13615503 32.15215228 -80.70774818 20.49644167 -73.11328125 8.53515625 C-53.84759034 -17.12475103 -24.56477596 -14.32562062 0 0 Z " fill="#FCFCFD" transform="translate(198.30078125,164.87890625)"/>
</svg>
